<?xml version="1.0" encoding="UTF-8"?>
<svg version="1.1" baseProfile="tiny" xmlns="http://www.w3.org/2000/svg" width="348" height="348">
<rect shape-rendering="optimizeSpeed"  x="0" y="0" width="348" height="348" fill="white" />
<rect shape-rendering="optimizeSpeed"  x="0" y="0" width="12" height="12" fill="black" />
<rect shape-rendering="optimizeSpeed"  x="12" y="0" width="12" height="12" fill="black" />
<rect shape-rendering="optimizeSpeed"  x="24" y="0" width="12" height="12" fill="black" />
<rect shape-rendering="optimizeSpeed"  x="36" y="0" width="12" height="12" fill="black" />
<rect shape-rendering="optimizeSpeed"  x="48" y="0" width="12" height="12" fill="black" />
<rect shape-rendering="optimizeSpeed"  x="60" y="0" width="12" height="12" fill="black" />
<rect shape-rendering="optimizeSpeed"  x="72" y="0" width="12" height="12" fill="black" />
<rect shape-rendering="optimizeSpeed"  x="96" y="0" width="12" height="12" fill="black" />
<rect shape-rendering="optimizeSpeed"  x="120" y="0" width="12" height="12" fill="black" />
<rect shape-rendering="optimizeSpeed"  x="144" y="0" width="12" height="12" fill="black" />
<rect shape-rendering="optimizeSpeed"  x="156" y="0" width="12" height="12" fill="black" />
<rect shape-rendering="optimizeSpeed"  x="192" y="0" width="12" height="12" fill="black" />
<rect shape-rendering="optimizeSpeed"  x="216" y="0" width="12" height="12" fill="black" />
<rect shape-rendering="optimizeSpeed"  x="228" y="0" width="12" height="12" fill="black" />
<rect shape-rendering="optimizeSpeed"  x="240" y="0" width="12" height="12" fill="black" />
<rect shape-rendering="optimizeSpeed"  x="264" y="0" width="12" height="12" fill="black" />
<rect shape-rendering="optimizeSpeed"  x="276" y="0" width="12" height="12" fill="black" />
<rect shape-rendering="optimizeSpeed"  x="288" y="0" width="12" height="12" fill="black" />
<rect shape-rendering="optimizeSpeed"  x="300" y="0" width="12" height="12" fill="black" />
<rect shape-rendering="optimizeSpeed"  x="312" y="0" width="12" height="12" fill="black" />
<rect shape-rendering="optimizeSpeed"  x="324" y="0" width="12" height="12" fill="black" />
<rect shape-rendering="optimizeSpeed"  x="336" y="0" width="12" height="12" fill="black" />
<rect shape-rendering="optimizeSpeed"  x="0" y="12" width="12" height="12" fill="black" />
<rect shape-rendering="optimizeSpeed"  x="72" y="12" width="12" height="12" fill="black" />
<rect shape-rendering="optimizeSpeed"  x="108" y="12" width="12" height="12" fill="black" />
<rect shape-rendering="optimizeSpeed"  x="120" y="12" width="12" height="12" fill="black" />
<rect shape-rendering="optimizeSpeed"  x="132" y="12" width="12" height="12" fill="black" />
<rect shape-rendering="optimizeSpeed"  x="144" y="12" width="12" height="12" fill="black" />
<rect shape-rendering="optimizeSpeed"  x="156" y="12" width="12" height="12" fill="black" />
<rect shape-rendering="optimizeSpeed"  x="192" y="12" width="12" height="12" fill="black" />
<rect shape-rendering="optimizeSpeed"  x="240" y="12" width="12" height="12" fill="black" />
<rect shape-rendering="optimizeSpeed"  x="264" y="12" width="12" height="12" fill="black" />
<rect shape-rendering="optimizeSpeed"  x="336" y="12" width="12" height="12" fill="black" />
<rect shape-rendering="optimizeSpeed"  x="0" y="24" width="12" height="12" fill="black" />
<rect shape-rendering="optimizeSpeed"  x="24" y="24" width="12" height="12" fill="black" />
<rect shape-rendering="optimizeSpeed"  x="36" y="24" width="12" height="12" fill="black" />
<rect shape-rendering="optimizeSpeed"  x="48" y="24" width="12" height="12" fill="black" />
<rect shape-rendering="optimizeSpeed"  x="72" y="24" width="12" height="12" fill="black" />
<rect shape-rendering="optimizeSpeed"  x="96" y="24" width="12" height="12" fill="black" />
<rect shape-rendering="optimizeSpeed"  x="108" y="24" width="12" height="12" fill="black" />
<rect shape-rendering="optimizeSpeed"  x="120" y="24" width="12" height="12" fill="black" />
<rect shape-rendering="optimizeSpeed"  x="156" y="24" width="12" height="12" fill="black" />
<rect shape-rendering="optimizeSpeed"  x="168" y="24" width="12" height="12" fill="black" />
<rect shape-rendering="optimizeSpeed"  x="216" y="24" width="12" height="12" fill="black" />
<rect shape-rendering="optimizeSpeed"  x="240" y="24" width="12" height="12" fill="black" />
<rect shape-rendering="optimizeSpeed"  x="264" y="24" width="12" height="12" fill="black" />
<rect shape-rendering="optimizeSpeed"  x="288" y="24" width="12" height="12" fill="black" />
<rect shape-rendering="optimizeSpeed"  x="300" y="24" width="12" height="12" fill="black" />
<rect shape-rendering="optimizeSpeed"  x="312" y="24" width="12" height="12" fill="black" />
<rect shape-rendering="optimizeSpeed"  x="336" y="24" width="12" height="12" fill="black" />
<rect shape-rendering="optimizeSpeed"  x="0" y="36" width="12" height="12" fill="black" />
<rect shape-rendering="optimizeSpeed"  x="24" y="36" width="12" height="12" fill="black" />
<rect shape-rendering="optimizeSpeed"  x="36" y="36" width="12" height="12" fill="black" />
<rect shape-rendering="optimizeSpeed"  x="48" y="36" width="12" height="12" fill="black" />
<rect shape-rendering="optimizeSpeed"  x="72" y="36" width="12" height="12" fill="black" />
<rect shape-rendering="optimizeSpeed"  x="96" y="36" width="12" height="12" fill="black" />
<rect shape-rendering="optimizeSpeed"  x="108" y="36" width="12" height="12" fill="black" />
<rect shape-rendering="optimizeSpeed"  x="120" y="36" width="12" height="12" fill="black" />
<rect shape-rendering="optimizeSpeed"  x="144" y="36" width="12" height="12" fill="black" />
<rect shape-rendering="optimizeSpeed"  x="156" y="36" width="12" height="12" fill="black" />
<rect shape-rendering="optimizeSpeed"  x="168" y="36" width="12" height="12" fill="black" />
<rect shape-rendering="optimizeSpeed"  x="204" y="36" width="12" height="12" fill="black" />
<rect shape-rendering="optimizeSpeed"  x="228" y="36" width="12" height="12" fill="black" />
<rect shape-rendering="optimizeSpeed"  x="264" y="36" width="12" height="12" fill="black" />
<rect shape-rendering="optimizeSpeed"  x="288" y="36" width="12" height="12" fill="black" />
<rect shape-rendering="optimizeSpeed"  x="300" y="36" width="12" height="12" fill="black" />
<rect shape-rendering="optimizeSpeed"  x="312" y="36" width="12" height="12" fill="black" />
<rect shape-rendering="optimizeSpeed"  x="336" y="36" width="12" height="12" fill="black" />
<rect shape-rendering="optimizeSpeed"  x="0" y="48" width="12" height="12" fill="black" />
<rect shape-rendering="optimizeSpeed"  x="24" y="48" width="12" height="12" fill="black" />
<rect shape-rendering="optimizeSpeed"  x="36" y="48" width="12" height="12" fill="black" />
<rect shape-rendering="optimizeSpeed"  x="48" y="48" width="12" height="12" fill="black" />
<rect shape-rendering="optimizeSpeed"  x="72" y="48" width="12" height="12" fill="black" />
<rect shape-rendering="optimizeSpeed"  x="96" y="48" width="12" height="12" fill="black" />
<rect shape-rendering="optimizeSpeed"  x="132" y="48" width="12" height="12" fill="black" />
<rect shape-rendering="optimizeSpeed"  x="144" y="48" width="12" height="12" fill="black" />
<rect shape-rendering="optimizeSpeed"  x="180" y="48" width="12" height="12" fill="black" />
<rect shape-rendering="optimizeSpeed"  x="228" y="48" width="12" height="12" fill="black" />
<rect shape-rendering="optimizeSpeed"  x="240" y="48" width="12" height="12" fill="black" />
<rect shape-rendering="optimizeSpeed"  x="264" y="48" width="12" height="12" fill="black" />
<rect shape-rendering="optimizeSpeed"  x="288" y="48" width="12" height="12" fill="black" />
<rect shape-rendering="optimizeSpeed"  x="300" y="48" width="12" height="12" fill="black" />
<rect shape-rendering="optimizeSpeed"  x="312" y="48" width="12" height="12" fill="black" />
<rect shape-rendering="optimizeSpeed"  x="336" y="48" width="12" height="12" fill="black" />
<rect shape-rendering="optimizeSpeed"  x="0" y="60" width="12" height="12" fill="black" />
<rect shape-rendering="optimizeSpeed"  x="72" y="60" width="12" height="12" fill="black" />
<rect shape-rendering="optimizeSpeed"  x="120" y="60" width="12" height="12" fill="black" />
<rect shape-rendering="optimizeSpeed"  x="132" y="60" width="12" height="12" fill="black" />
<rect shape-rendering="optimizeSpeed"  x="192" y="60" width="12" height="12" fill="black" />
<rect shape-rendering="optimizeSpeed"  x="204" y="60" width="12" height="12" fill="black" />
<rect shape-rendering="optimizeSpeed"  x="216" y="60" width="12" height="12" fill="black" />
<rect shape-rendering="optimizeSpeed"  x="228" y="60" width="12" height="12" fill="black" />
<rect shape-rendering="optimizeSpeed"  x="264" y="60" width="12" height="12" fill="black" />
<rect shape-rendering="optimizeSpeed"  x="336" y="60" width="12" height="12" fill="black" />
<rect shape-rendering="optimizeSpeed"  x="0" y="72" width="12" height="12" fill="black" />
<rect shape-rendering="optimizeSpeed"  x="12" y="72" width="12" height="12" fill="black" />
<rect shape-rendering="optimizeSpeed"  x="24" y="72" width="12" height="12" fill="black" />
<rect shape-rendering="optimizeSpeed"  x="36" y="72" width="12" height="12" fill="black" />
<rect shape-rendering="optimizeSpeed"  x="48" y="72" width="12" height="12" fill="black" />
<rect shape-rendering="optimizeSpeed"  x="60" y="72" width="12" height="12" fill="black" />
<rect shape-rendering="optimizeSpeed"  x="72" y="72" width="12" height="12" fill="black" />
<rect shape-rendering="optimizeSpeed"  x="96" y="72" width="12" height="12" fill="black" />
<rect shape-rendering="optimizeSpeed"  x="120" y="72" width="12" height="12" fill="black" />
<rect shape-rendering="optimizeSpeed"  x="144" y="72" width="12" height="12" fill="black" />
<rect shape-rendering="optimizeSpeed"  x="168" y="72" width="12" height="12" fill="black" />
<rect shape-rendering="optimizeSpeed"  x="192" y="72" width="12" height="12" fill="black" />
<rect shape-rendering="optimizeSpeed"  x="216" y="72" width="12" height="12" fill="black" />
<rect shape-rendering="optimizeSpeed"  x="240" y="72" width="12" height="12" fill="black" />
<rect shape-rendering="optimizeSpeed"  x="264" y="72" width="12" height="12" fill="black" />
<rect shape-rendering="optimizeSpeed"  x="276" y="72" width="12" height="12" fill="black" />
<rect shape-rendering="optimizeSpeed"  x="288" y="72" width="12" height="12" fill="black" />
<rect shape-rendering="optimizeSpeed"  x="300" y="72" width="12" height="12" fill="black" />
<rect shape-rendering="optimizeSpeed"  x="312" y="72" width="12" height="12" fill="black" />
<rect shape-rendering="optimizeSpeed"  x="324" y="72" width="12" height="12" fill="black" />
<rect shape-rendering="optimizeSpeed"  x="336" y="72" width="12" height="12" fill="black" />
<rect shape-rendering="optimizeSpeed"  x="120" y="84" width="12" height="12" fill="black" />
<rect shape-rendering="optimizeSpeed"  x="144" y="84" width="12" height="12" fill="black" />
<rect shape-rendering="optimizeSpeed"  x="168" y="84" width="12" height="12" fill="black" />
<rect shape-rendering="optimizeSpeed"  x="180" y="84" width="12" height="12" fill="black" />
<rect shape-rendering="optimizeSpeed"  x="204" y="84" width="12" height="12" fill="black" />
<rect shape-rendering="optimizeSpeed"  x="216" y="84" width="12" height="12" fill="black" />
<rect shape-rendering="optimizeSpeed"  x="228" y="84" width="12" height="12" fill="black" />
<rect shape-rendering="optimizeSpeed"  x="0" y="96" width="12" height="12" fill="black" />
<rect shape-rendering="optimizeSpeed"  x="12" y="96" width="12" height="12" fill="black" />
<rect shape-rendering="optimizeSpeed"  x="24" y="96" width="12" height="12" fill="black" />
<rect shape-rendering="optimizeSpeed"  x="36" y="96" width="12" height="12" fill="black" />
<rect shape-rendering="optimizeSpeed"  x="72" y="96" width="12" height="12" fill="black" />
<rect shape-rendering="optimizeSpeed"  x="96" y="96" width="12" height="12" fill="black" />
<rect shape-rendering="optimizeSpeed"  x="120" y="96" width="12" height="12" fill="black" />
<rect shape-rendering="optimizeSpeed"  x="132" y="96" width="12" height="12" fill="black" />
<rect shape-rendering="optimizeSpeed"  x="168" y="96" width="12" height="12" fill="black" />
<rect shape-rendering="optimizeSpeed"  x="204" y="96" width="12" height="12" fill="black" />
<rect shape-rendering="optimizeSpeed"  x="216" y="96" width="12" height="12" fill="black" />
<rect shape-rendering="optimizeSpeed"  x="252" y="96" width="12" height="12" fill="black" />
<rect shape-rendering="optimizeSpeed"  x="288" y="96" width="12" height="12" fill="black" />
<rect shape-rendering="optimizeSpeed"  x="300" y="96" width="12" height="12" fill="black" />
<rect shape-rendering="optimizeSpeed"  x="312" y="96" width="12" height="12" fill="black" />
<rect shape-rendering="optimizeSpeed"  x="336" y="96" width="12" height="12" fill="black" />
<rect shape-rendering="optimizeSpeed"  x="0" y="108" width="12" height="12" fill="black" />
<rect shape-rendering="optimizeSpeed"  x="12" y="108" width="12" height="12" fill="black" />
<rect shape-rendering="optimizeSpeed"  x="36" y="108" width="12" height="12" fill="black" />
<rect shape-rendering="optimizeSpeed"  x="48" y="108" width="12" height="12" fill="black" />
<rect shape-rendering="optimizeSpeed"  x="60" y="108" width="12" height="12" fill="black" />
<rect shape-rendering="optimizeSpeed"  x="84" y="108" width="12" height="12" fill="black" />
<rect shape-rendering="optimizeSpeed"  x="120" y="108" width="12" height="12" fill="black" />
<rect shape-rendering="optimizeSpeed"  x="144" y="108" width="12" height="12" fill="black" />
<rect shape-rendering="optimizeSpeed"  x="156" y="108" width="12" height="12" fill="black" />
<rect shape-rendering="optimizeSpeed"  x="192" y="108" width="12" height="12" fill="black" />
<rect shape-rendering="optimizeSpeed"  x="204" y="108" width="12" height="12" fill="black" />
<rect shape-rendering="optimizeSpeed"  x="216" y="108" width="12" height="12" fill="black" />
<rect shape-rendering="optimizeSpeed"  x="228" y="108" width="12" height="12" fill="black" />
<rect shape-rendering="optimizeSpeed"  x="240" y="108" width="12" height="12" fill="black" />
<rect shape-rendering="optimizeSpeed"  x="252" y="108" width="12" height="12" fill="black" />
<rect shape-rendering="optimizeSpeed"  x="264" y="108" width="12" height="12" fill="black" />
<rect shape-rendering="optimizeSpeed"  x="276" y="108" width="12" height="12" fill="black" />
<rect shape-rendering="optimizeSpeed"  x="288" y="108" width="12" height="12" fill="black" />
<rect shape-rendering="optimizeSpeed"  x="336" y="108" width="12" height="12" fill="black" />
<rect shape-rendering="optimizeSpeed"  x="0" y="120" width="12" height="12" fill="black" />
<rect shape-rendering="optimizeSpeed"  x="12" y="120" width="12" height="12" fill="black" />
<rect shape-rendering="optimizeSpeed"  x="48" y="120" width="12" height="12" fill="black" />
<rect shape-rendering="optimizeSpeed"  x="72" y="120" width="12" height="12" fill="black" />
<rect shape-rendering="optimizeSpeed"  x="84" y="120" width="12" height="12" fill="black" />
<rect shape-rendering="optimizeSpeed"  x="108" y="120" width="12" height="12" fill="black" />
<rect shape-rendering="optimizeSpeed"  x="120" y="120" width="12" height="12" fill="black" />
<rect shape-rendering="optimizeSpeed"  x="132" y="120" width="12" height="12" fill="black" />
<rect shape-rendering="optimizeSpeed"  x="144" y="120" width="12" height="12" fill="black" />
<rect shape-rendering="optimizeSpeed"  x="156" y="120" width="12" height="12" fill="black" />
<rect shape-rendering="optimizeSpeed"  x="192" y="120" width="12" height="12" fill="black" />
<rect shape-rendering="optimizeSpeed"  x="204" y="120" width="12" height="12" fill="black" />
<rect shape-rendering="optimizeSpeed"  x="216" y="120" width="12" height="12" fill="black" />
<rect shape-rendering="optimizeSpeed"  x="252" y="120" width="12" height="12" fill="black" />
<rect shape-rendering="optimizeSpeed"  x="264" y="120" width="12" height="12" fill="black" />
<rect shape-rendering="optimizeSpeed"  x="312" y="120" width="12" height="12" fill="black" />
<rect shape-rendering="optimizeSpeed"  x="324" y="120" width="12" height="12" fill="black" />
<rect shape-rendering="optimizeSpeed"  x="12" y="132" width="12" height="12" fill="black" />
<rect shape-rendering="optimizeSpeed"  x="48" y="132" width="12" height="12" fill="black" />
<rect shape-rendering="optimizeSpeed"  x="96" y="132" width="12" height="12" fill="black" />
<rect shape-rendering="optimizeSpeed"  x="108" y="132" width="12" height="12" fill="black" />
<rect shape-rendering="optimizeSpeed"  x="120" y="132" width="12" height="12" fill="black" />
<rect shape-rendering="optimizeSpeed"  x="132" y="132" width="12" height="12" fill="black" />
<rect shape-rendering="optimizeSpeed"  x="156" y="132" width="12" height="12" fill="black" />
<rect shape-rendering="optimizeSpeed"  x="192" y="132" width="12" height="12" fill="black" />
<rect shape-rendering="optimizeSpeed"  x="216" y="132" width="12" height="12" fill="black" />
<rect shape-rendering="optimizeSpeed"  x="228" y="132" width="12" height="12" fill="black" />
<rect shape-rendering="optimizeSpeed"  x="240" y="132" width="12" height="12" fill="black" />
<rect shape-rendering="optimizeSpeed"  x="276" y="132" width="12" height="12" fill="black" />
<rect shape-rendering="optimizeSpeed"  x="336" y="132" width="12" height="12" fill="black" />
<rect shape-rendering="optimizeSpeed"  x="24" y="144" width="12" height="12" fill="black" />
<rect shape-rendering="optimizeSpeed"  x="36" y="144" width="12" height="12" fill="black" />
<rect shape-rendering="optimizeSpeed"  x="60" y="144" width="12" height="12" fill="black" />
<rect shape-rendering="optimizeSpeed"  x="72" y="144" width="12" height="12" fill="black" />
<rect shape-rendering="optimizeSpeed"  x="108" y="144" width="12" height="12" fill="black" />
<rect shape-rendering="optimizeSpeed"  x="120" y="144" width="12" height="12" fill="black" />
<rect shape-rendering="optimizeSpeed"  x="156" y="144" width="12" height="12" fill="black" />
<rect shape-rendering="optimizeSpeed"  x="168" y="144" width="12" height="12" fill="black" />
<rect shape-rendering="optimizeSpeed"  x="204" y="144" width="12" height="12" fill="black" />
<rect shape-rendering="optimizeSpeed"  x="216" y="144" width="12" height="12" fill="black" />
<rect shape-rendering="optimizeSpeed"  x="276" y="144" width="12" height="12" fill="black" />
<rect shape-rendering="optimizeSpeed"  x="300" y="144" width="12" height="12" fill="black" />
<rect shape-rendering="optimizeSpeed"  x="312" y="144" width="12" height="12" fill="black" />
<rect shape-rendering="optimizeSpeed"  x="12" y="156" width="12" height="12" fill="black" />
<rect shape-rendering="optimizeSpeed"  x="24" y="156" width="12" height="12" fill="black" />
<rect shape-rendering="optimizeSpeed"  x="36" y="156" width="12" height="12" fill="black" />
<rect shape-rendering="optimizeSpeed"  x="48" y="156" width="12" height="12" fill="black" />
<rect shape-rendering="optimizeSpeed"  x="60" y="156" width="12" height="12" fill="black" />
<rect shape-rendering="optimizeSpeed"  x="84" y="156" width="12" height="12" fill="black" />
<rect shape-rendering="optimizeSpeed"  x="96" y="156" width="12" height="12" fill="black" />
<rect shape-rendering="optimizeSpeed"  x="168" y="156" width="12" height="12" fill="black" />
<rect shape-rendering="optimizeSpeed"  x="180" y="156" width="12" height="12" fill="black" />
<rect shape-rendering="optimizeSpeed"  x="192" y="156" width="12" height="12" fill="black" />
<rect shape-rendering="optimizeSpeed"  x="228" y="156" width="12" height="12" fill="black" />
<rect shape-rendering="optimizeSpeed"  x="264" y="156" width="12" height="12" fill="black" />
<rect shape-rendering="optimizeSpeed"  x="312" y="156" width="12" height="12" fill="black" />
<rect shape-rendering="optimizeSpeed"  x="324" y="156" width="12" height="12" fill="black" />
<rect shape-rendering="optimizeSpeed"  x="336" y="156" width="12" height="12" fill="black" />
<rect shape-rendering="optimizeSpeed"  x="12" y="168" width="12" height="12" fill="black" />
<rect shape-rendering="optimizeSpeed"  x="24" y="168" width="12" height="12" fill="black" />
<rect shape-rendering="optimizeSpeed"  x="60" y="168" width="12" height="12" fill="black" />
<rect shape-rendering="optimizeSpeed"  x="72" y="168" width="12" height="12" fill="black" />
<rect shape-rendering="optimizeSpeed"  x="84" y="168" width="12" height="12" fill="black" />
<rect shape-rendering="optimizeSpeed"  x="96" y="168" width="12" height="12" fill="black" />
<rect shape-rendering="optimizeSpeed"  x="108" y="168" width="12" height="12" fill="black" />
<rect shape-rendering="optimizeSpeed"  x="120" y="168" width="12" height="12" fill="black" />
<rect shape-rendering="optimizeSpeed"  x="156" y="168" width="12" height="12" fill="black" />
<rect shape-rendering="optimizeSpeed"  x="168" y="168" width="12" height="12" fill="black" />
<rect shape-rendering="optimizeSpeed"  x="192" y="168" width="12" height="12" fill="black" />
<rect shape-rendering="optimizeSpeed"  x="204" y="168" width="12" height="12" fill="black" />
<rect shape-rendering="optimizeSpeed"  x="216" y="168" width="12" height="12" fill="black" />
<rect shape-rendering="optimizeSpeed"  x="228" y="168" width="12" height="12" fill="black" />
<rect shape-rendering="optimizeSpeed"  x="252" y="168" width="12" height="12" fill="black" />
<rect shape-rendering="optimizeSpeed"  x="264" y="168" width="12" height="12" fill="black" />
<rect shape-rendering="optimizeSpeed"  x="276" y="168" width="12" height="12" fill="black" />
<rect shape-rendering="optimizeSpeed"  x="288" y="168" width="12" height="12" fill="black" />
<rect shape-rendering="optimizeSpeed"  x="312" y="168" width="12" height="12" fill="black" />
<rect shape-rendering="optimizeSpeed"  x="324" y="168" width="12" height="12" fill="black" />
<rect shape-rendering="optimizeSpeed"  x="336" y="168" width="12" height="12" fill="black" />
<rect shape-rendering="optimizeSpeed"  x="48" y="180" width="12" height="12" fill="black" />
<rect shape-rendering="optimizeSpeed"  x="96" y="180" width="12" height="12" fill="black" />
<rect shape-rendering="optimizeSpeed"  x="120" y="180" width="12" height="12" fill="black" />
<rect shape-rendering="optimizeSpeed"  x="144" y="180" width="12" height="12" fill="black" />
<rect shape-rendering="optimizeSpeed"  x="168" y="180" width="12" height="12" fill="black" />
<rect shape-rendering="optimizeSpeed"  x="228" y="180" width="12" height="12" fill="black" />
<rect shape-rendering="optimizeSpeed"  x="252" y="180" width="12" height="12" fill="black" />
<rect shape-rendering="optimizeSpeed"  x="324" y="180" width="12" height="12" fill="black" />
<rect shape-rendering="optimizeSpeed"  x="36" y="192" width="12" height="12" fill="black" />
<rect shape-rendering="optimizeSpeed"  x="60" y="192" width="12" height="12" fill="black" />
<rect shape-rendering="optimizeSpeed"  x="72" y="192" width="12" height="12" fill="black" />
<rect shape-rendering="optimizeSpeed"  x="84" y="192" width="12" height="12" fill="black" />
<rect shape-rendering="optimizeSpeed"  x="96" y="192" width="12" height="12" fill="black" />
<rect shape-rendering="optimizeSpeed"  x="108" y="192" width="12" height="12" fill="black" />
<rect shape-rendering="optimizeSpeed"  x="120" y="192" width="12" height="12" fill="black" />
<rect shape-rendering="optimizeSpeed"  x="132" y="192" width="12" height="12" fill="black" />
<rect shape-rendering="optimizeSpeed"  x="144" y="192" width="12" height="12" fill="black" />
<rect shape-rendering="optimizeSpeed"  x="156" y="192" width="12" height="12" fill="black" />
<rect shape-rendering="optimizeSpeed"  x="216" y="192" width="12" height="12" fill="black" />
<rect shape-rendering="optimizeSpeed"  x="252" y="192" width="12" height="12" fill="black" />
<rect shape-rendering="optimizeSpeed"  x="276" y="192" width="12" height="12" fill="black" />
<rect shape-rendering="optimizeSpeed"  x="288" y="192" width="12" height="12" fill="black" />
<rect shape-rendering="optimizeSpeed"  x="300" y="192" width="12" height="12" fill="black" />
<rect shape-rendering="optimizeSpeed"  x="324" y="192" width="12" height="12" fill="black" />
<rect shape-rendering="optimizeSpeed"  x="12" y="204" width="12" height="12" fill="black" />
<rect shape-rendering="optimizeSpeed"  x="60" y="204" width="12" height="12" fill="black" />
<rect shape-rendering="optimizeSpeed"  x="108" y="204" width="12" height="12" fill="black" />
<rect shape-rendering="optimizeSpeed"  x="120" y="204" width="12" height="12" fill="black" />
<rect shape-rendering="optimizeSpeed"  x="132" y="204" width="12" height="12" fill="black" />
<rect shape-rendering="optimizeSpeed"  x="180" y="204" width="12" height="12" fill="black" />
<rect shape-rendering="optimizeSpeed"  x="240" y="204" width="12" height="12" fill="black" />
<rect shape-rendering="optimizeSpeed"  x="252" y="204" width="12" height="12" fill="black" />
<rect shape-rendering="optimizeSpeed"  x="276" y="204" width="12" height="12" fill="black" />
<rect shape-rendering="optimizeSpeed"  x="300" y="204" width="12" height="12" fill="black" />
<rect shape-rendering="optimizeSpeed"  x="312" y="204" width="12" height="12" fill="black" />
<rect shape-rendering="optimizeSpeed"  x="324" y="204" width="12" height="12" fill="black" />
<rect shape-rendering="optimizeSpeed"  x="0" y="216" width="12" height="12" fill="black" />
<rect shape-rendering="optimizeSpeed"  x="24" y="216" width="12" height="12" fill="black" />
<rect shape-rendering="optimizeSpeed"  x="36" y="216" width="12" height="12" fill="black" />
<rect shape-rendering="optimizeSpeed"  x="48" y="216" width="12" height="12" fill="black" />
<rect shape-rendering="optimizeSpeed"  x="60" y="216" width="12" height="12" fill="black" />
<rect shape-rendering="optimizeSpeed"  x="72" y="216" width="12" height="12" fill="black" />
<rect shape-rendering="optimizeSpeed"  x="156" y="216" width="12" height="12" fill="black" />
<rect shape-rendering="optimizeSpeed"  x="180" y="216" width="12" height="12" fill="black" />
<rect shape-rendering="optimizeSpeed"  x="192" y="216" width="12" height="12" fill="black" />
<rect shape-rendering="optimizeSpeed"  x="216" y="216" width="12" height="12" fill="black" />
<rect shape-rendering="optimizeSpeed"  x="240" y="216" width="12" height="12" fill="black" />
<rect shape-rendering="optimizeSpeed"  x="276" y="216" width="12" height="12" fill="black" />
<rect shape-rendering="optimizeSpeed"  x="312" y="216" width="12" height="12" fill="black" />
<rect shape-rendering="optimizeSpeed"  x="48" y="228" width="12" height="12" fill="black" />
<rect shape-rendering="optimizeSpeed"  x="84" y="228" width="12" height="12" fill="black" />
<rect shape-rendering="optimizeSpeed"  x="132" y="228" width="12" height="12" fill="black" />
<rect shape-rendering="optimizeSpeed"  x="144" y="228" width="12" height="12" fill="black" />
<rect shape-rendering="optimizeSpeed"  x="204" y="228" width="12" height="12" fill="black" />
<rect shape-rendering="optimizeSpeed"  x="216" y="228" width="12" height="12" fill="black" />
<rect shape-rendering="optimizeSpeed"  x="228" y="228" width="12" height="12" fill="black" />
<rect shape-rendering="optimizeSpeed"  x="252" y="228" width="12" height="12" fill="black" />
<rect shape-rendering="optimizeSpeed"  x="288" y="228" width="12" height="12" fill="black" />
<rect shape-rendering="optimizeSpeed"  x="312" y="228" width="12" height="12" fill="black" />
<rect shape-rendering="optimizeSpeed"  x="12" y="240" width="12" height="12" fill="black" />
<rect shape-rendering="optimizeSpeed"  x="24" y="240" width="12" height="12" fill="black" />
<rect shape-rendering="optimizeSpeed"  x="36" y="240" width="12" height="12" fill="black" />
<rect shape-rendering="optimizeSpeed"  x="48" y="240" width="12" height="12" fill="black" />
<rect shape-rendering="optimizeSpeed"  x="60" y="240" width="12" height="12" fill="black" />
<rect shape-rendering="optimizeSpeed"  x="72" y="240" width="12" height="12" fill="black" />
<rect shape-rendering="optimizeSpeed"  x="96" y="240" width="12" height="12" fill="black" />
<rect shape-rendering="optimizeSpeed"  x="120" y="240" width="12" height="12" fill="black" />
<rect shape-rendering="optimizeSpeed"  x="192" y="240" width="12" height="12" fill="black" />
<rect shape-rendering="optimizeSpeed"  x="204" y="240" width="12" height="12" fill="black" />
<rect shape-rendering="optimizeSpeed"  x="216" y="240" width="12" height="12" fill="black" />
<rect shape-rendering="optimizeSpeed"  x="228" y="240" width="12" height="12" fill="black" />
<rect shape-rendering="optimizeSpeed"  x="240" y="240" width="12" height="12" fill="black" />
<rect shape-rendering="optimizeSpeed"  x="252" y="240" width="12" height="12" fill="black" />
<rect shape-rendering="optimizeSpeed"  x="264" y="240" width="12" height="12" fill="black" />
<rect shape-rendering="optimizeSpeed"  x="276" y="240" width="12" height="12" fill="black" />
<rect shape-rendering="optimizeSpeed"  x="288" y="240" width="12" height="12" fill="black" />
<rect shape-rendering="optimizeSpeed"  x="300" y="240" width="12" height="12" fill="black" />
<rect shape-rendering="optimizeSpeed"  x="312" y="240" width="12" height="12" fill="black" />
<rect shape-rendering="optimizeSpeed"  x="96" y="252" width="12" height="12" fill="black" />
<rect shape-rendering="optimizeSpeed"  x="108" y="252" width="12" height="12" fill="black" />
<rect shape-rendering="optimizeSpeed"  x="132" y="252" width="12" height="12" fill="black" />
<rect shape-rendering="optimizeSpeed"  x="156" y="252" width="12" height="12" fill="black" />
<rect shape-rendering="optimizeSpeed"  x="192" y="252" width="12" height="12" fill="black" />
<rect shape-rendering="optimizeSpeed"  x="204" y="252" width="12" height="12" fill="black" />
<rect shape-rendering="optimizeSpeed"  x="216" y="252" width="12" height="12" fill="black" />
<rect shape-rendering="optimizeSpeed"  x="240" y="252" width="12" height="12" fill="black" />
<rect shape-rendering="optimizeSpeed"  x="288" y="252" width="12" height="12" fill="black" />
<rect shape-rendering="optimizeSpeed"  x="300" y="252" width="12" height="12" fill="black" />
<rect shape-rendering="optimizeSpeed"  x="312" y="252" width="12" height="12" fill="black" />
<rect shape-rendering="optimizeSpeed"  x="324" y="252" width="12" height="12" fill="black" />
<rect shape-rendering="optimizeSpeed"  x="336" y="252" width="12" height="12" fill="black" />
<rect shape-rendering="optimizeSpeed"  x="0" y="264" width="12" height="12" fill="black" />
<rect shape-rendering="optimizeSpeed"  x="12" y="264" width="12" height="12" fill="black" />
<rect shape-rendering="optimizeSpeed"  x="24" y="264" width="12" height="12" fill="black" />
<rect shape-rendering="optimizeSpeed"  x="36" y="264" width="12" height="12" fill="black" />
<rect shape-rendering="optimizeSpeed"  x="48" y="264" width="12" height="12" fill="black" />
<rect shape-rendering="optimizeSpeed"  x="60" y="264" width="12" height="12" fill="black" />
<rect shape-rendering="optimizeSpeed"  x="72" y="264" width="12" height="12" fill="black" />
<rect shape-rendering="optimizeSpeed"  x="108" y="264" width="12" height="12" fill="black" />
<rect shape-rendering="optimizeSpeed"  x="132" y="264" width="12" height="12" fill="black" />
<rect shape-rendering="optimizeSpeed"  x="144" y="264" width="12" height="12" fill="black" />
<rect shape-rendering="optimizeSpeed"  x="156" y="264" width="12" height="12" fill="black" />
<rect shape-rendering="optimizeSpeed"  x="192" y="264" width="12" height="12" fill="black" />
<rect shape-rendering="optimizeSpeed"  x="216" y="264" width="12" height="12" fill="black" />
<rect shape-rendering="optimizeSpeed"  x="228" y="264" width="12" height="12" fill="black" />
<rect shape-rendering="optimizeSpeed"  x="240" y="264" width="12" height="12" fill="black" />
<rect shape-rendering="optimizeSpeed"  x="264" y="264" width="12" height="12" fill="black" />
<rect shape-rendering="optimizeSpeed"  x="288" y="264" width="12" height="12" fill="black" />
<rect shape-rendering="optimizeSpeed"  x="300" y="264" width="12" height="12" fill="black" />
<rect shape-rendering="optimizeSpeed"  x="324" y="264" width="12" height="12" fill="black" />
<rect shape-rendering="optimizeSpeed"  x="0" y="276" width="12" height="12" fill="black" />
<rect shape-rendering="optimizeSpeed"  x="72" y="276" width="12" height="12" fill="black" />
<rect shape-rendering="optimizeSpeed"  x="108" y="276" width="12" height="12" fill="black" />
<rect shape-rendering="optimizeSpeed"  x="120" y="276" width="12" height="12" fill="black" />
<rect shape-rendering="optimizeSpeed"  x="132" y="276" width="12" height="12" fill="black" />
<rect shape-rendering="optimizeSpeed"  x="144" y="276" width="12" height="12" fill="black" />
<rect shape-rendering="optimizeSpeed"  x="156" y="276" width="12" height="12" fill="black" />
<rect shape-rendering="optimizeSpeed"  x="168" y="276" width="12" height="12" fill="black" />
<rect shape-rendering="optimizeSpeed"  x="180" y="276" width="12" height="12" fill="black" />
<rect shape-rendering="optimizeSpeed"  x="192" y="276" width="12" height="12" fill="black" />
<rect shape-rendering="optimizeSpeed"  x="240" y="276" width="12" height="12" fill="black" />
<rect shape-rendering="optimizeSpeed"  x="288" y="276" width="12" height="12" fill="black" />
<rect shape-rendering="optimizeSpeed"  x="300" y="276" width="12" height="12" fill="black" />
<rect shape-rendering="optimizeSpeed"  x="336" y="276" width="12" height="12" fill="black" />
<rect shape-rendering="optimizeSpeed"  x="0" y="288" width="12" height="12" fill="black" />
<rect shape-rendering="optimizeSpeed"  x="24" y="288" width="12" height="12" fill="black" />
<rect shape-rendering="optimizeSpeed"  x="36" y="288" width="12" height="12" fill="black" />
<rect shape-rendering="optimizeSpeed"  x="48" y="288" width="12" height="12" fill="black" />
<rect shape-rendering="optimizeSpeed"  x="72" y="288" width="12" height="12" fill="black" />
<rect shape-rendering="optimizeSpeed"  x="120" y="288" width="12" height="12" fill="black" />
<rect shape-rendering="optimizeSpeed"  x="144" y="288" width="12" height="12" fill="black" />
<rect shape-rendering="optimizeSpeed"  x="156" y="288" width="12" height="12" fill="black" />
<rect shape-rendering="optimizeSpeed"  x="168" y="288" width="12" height="12" fill="black" />
<rect shape-rendering="optimizeSpeed"  x="204" y="288" width="12" height="12" fill="black" />
<rect shape-rendering="optimizeSpeed"  x="240" y="288" width="12" height="12" fill="black" />
<rect shape-rendering="optimizeSpeed"  x="252" y="288" width="12" height="12" fill="black" />
<rect shape-rendering="optimizeSpeed"  x="264" y="288" width="12" height="12" fill="black" />
<rect shape-rendering="optimizeSpeed"  x="276" y="288" width="12" height="12" fill="black" />
<rect shape-rendering="optimizeSpeed"  x="288" y="288" width="12" height="12" fill="black" />
<rect shape-rendering="optimizeSpeed"  x="312" y="288" width="12" height="12" fill="black" />
<rect shape-rendering="optimizeSpeed"  x="324" y="288" width="12" height="12" fill="black" />
<rect shape-rendering="optimizeSpeed"  x="0" y="300" width="12" height="12" fill="black" />
<rect shape-rendering="optimizeSpeed"  x="24" y="300" width="12" height="12" fill="black" />
<rect shape-rendering="optimizeSpeed"  x="36" y="300" width="12" height="12" fill="black" />
<rect shape-rendering="optimizeSpeed"  x="48" y="300" width="12" height="12" fill="black" />
<rect shape-rendering="optimizeSpeed"  x="72" y="300" width="12" height="12" fill="black" />
<rect shape-rendering="optimizeSpeed"  x="96" y="300" width="12" height="12" fill="black" />
<rect shape-rendering="optimizeSpeed"  x="108" y="300" width="12" height="12" fill="black" />
<rect shape-rendering="optimizeSpeed"  x="120" y="300" width="12" height="12" fill="black" />
<rect shape-rendering="optimizeSpeed"  x="144" y="300" width="12" height="12" fill="black" />
<rect shape-rendering="optimizeSpeed"  x="180" y="300" width="12" height="12" fill="black" />
<rect shape-rendering="optimizeSpeed"  x="192" y="300" width="12" height="12" fill="black" />
<rect shape-rendering="optimizeSpeed"  x="228" y="300" width="12" height="12" fill="black" />
<rect shape-rendering="optimizeSpeed"  x="252" y="300" width="12" height="12" fill="black" />
<rect shape-rendering="optimizeSpeed"  x="276" y="300" width="12" height="12" fill="black" />
<rect shape-rendering="optimizeSpeed"  x="288" y="300" width="12" height="12" fill="black" />
<rect shape-rendering="optimizeSpeed"  x="300" y="300" width="12" height="12" fill="black" />
<rect shape-rendering="optimizeSpeed"  x="324" y="300" width="12" height="12" fill="black" />
<rect shape-rendering="optimizeSpeed"  x="336" y="300" width="12" height="12" fill="black" />
<rect shape-rendering="optimizeSpeed"  x="0" y="312" width="12" height="12" fill="black" />
<rect shape-rendering="optimizeSpeed"  x="24" y="312" width="12" height="12" fill="black" />
<rect shape-rendering="optimizeSpeed"  x="36" y="312" width="12" height="12" fill="black" />
<rect shape-rendering="optimizeSpeed"  x="48" y="312" width="12" height="12" fill="black" />
<rect shape-rendering="optimizeSpeed"  x="72" y="312" width="12" height="12" fill="black" />
<rect shape-rendering="optimizeSpeed"  x="96" y="312" width="12" height="12" fill="black" />
<rect shape-rendering="optimizeSpeed"  x="108" y="312" width="12" height="12" fill="black" />
<rect shape-rendering="optimizeSpeed"  x="144" y="312" width="12" height="12" fill="black" />
<rect shape-rendering="optimizeSpeed"  x="156" y="312" width="12" height="12" fill="black" />
<rect shape-rendering="optimizeSpeed"  x="192" y="312" width="12" height="12" fill="black" />
<rect shape-rendering="optimizeSpeed"  x="240" y="312" width="12" height="12" fill="black" />
<rect shape-rendering="optimizeSpeed"  x="252" y="312" width="12" height="12" fill="black" />
<rect shape-rendering="optimizeSpeed"  x="276" y="312" width="12" height="12" fill="black" />
<rect shape-rendering="optimizeSpeed"  x="312" y="312" width="12" height="12" fill="black" />
<rect shape-rendering="optimizeSpeed"  x="336" y="312" width="12" height="12" fill="black" />
<rect shape-rendering="optimizeSpeed"  x="0" y="324" width="12" height="12" fill="black" />
<rect shape-rendering="optimizeSpeed"  x="72" y="324" width="12" height="12" fill="black" />
<rect shape-rendering="optimizeSpeed"  x="96" y="324" width="12" height="12" fill="black" />
<rect shape-rendering="optimizeSpeed"  x="108" y="324" width="12" height="12" fill="black" />
<rect shape-rendering="optimizeSpeed"  x="120" y="324" width="12" height="12" fill="black" />
<rect shape-rendering="optimizeSpeed"  x="144" y="324" width="12" height="12" fill="black" />
<rect shape-rendering="optimizeSpeed"  x="180" y="324" width="12" height="12" fill="black" />
<rect shape-rendering="optimizeSpeed"  x="192" y="324" width="12" height="12" fill="black" />
<rect shape-rendering="optimizeSpeed"  x="240" y="324" width="12" height="12" fill="black" />
<rect shape-rendering="optimizeSpeed"  x="252" y="324" width="12" height="12" fill="black" />
<rect shape-rendering="optimizeSpeed"  x="264" y="324" width="12" height="12" fill="black" />
<rect shape-rendering="optimizeSpeed"  x="288" y="324" width="12" height="12" fill="black" />
<rect shape-rendering="optimizeSpeed"  x="300" y="324" width="12" height="12" fill="black" />
<rect shape-rendering="optimizeSpeed"  x="324" y="324" width="12" height="12" fill="black" />
<rect shape-rendering="optimizeSpeed"  x="0" y="336" width="12" height="12" fill="black" />
<rect shape-rendering="optimizeSpeed"  x="12" y="336" width="12" height="12" fill="black" />
<rect shape-rendering="optimizeSpeed"  x="24" y="336" width="12" height="12" fill="black" />
<rect shape-rendering="optimizeSpeed"  x="36" y="336" width="12" height="12" fill="black" />
<rect shape-rendering="optimizeSpeed"  x="48" y="336" width="12" height="12" fill="black" />
<rect shape-rendering="optimizeSpeed"  x="60" y="336" width="12" height="12" fill="black" />
<rect shape-rendering="optimizeSpeed"  x="72" y="336" width="12" height="12" fill="black" />
<rect shape-rendering="optimizeSpeed"  x="96" y="336" width="12" height="12" fill="black" />
<rect shape-rendering="optimizeSpeed"  x="108" y="336" width="12" height="12" fill="black" />
<rect shape-rendering="optimizeSpeed"  x="120" y="336" width="12" height="12" fill="black" />
<rect shape-rendering="optimizeSpeed"  x="132" y="336" width="12" height="12" fill="black" />
<rect shape-rendering="optimizeSpeed"  x="156" y="336" width="12" height="12" fill="black" />
<rect shape-rendering="optimizeSpeed"  x="192" y="336" width="12" height="12" fill="black" />
<rect shape-rendering="optimizeSpeed"  x="216" y="336" width="12" height="12" fill="black" />
<rect shape-rendering="optimizeSpeed"  x="228" y="336" width="12" height="12" fill="black" />
<rect shape-rendering="optimizeSpeed"  x="240" y="336" width="12" height="12" fill="black" />
<rect shape-rendering="optimizeSpeed"  x="252" y="336" width="12" height="12" fill="black" />
<rect shape-rendering="optimizeSpeed"  x="324" y="336" width="12" height="12" fill="black" /></svg>